<svg width="472" height="155" viewBox="0 0 472 155" fill="none" xmlns="http://www.w3.org/2000/svg">
<path d="M349.664 30.9609V71.625H366.539V80.7656H349.664V136.195H338.531V30.9609H349.664ZM321.422 41.0391V50.0625H283.453V100.805C301.09 100.746 314.332 99.9844 329.273 97.2891L330.68 106.664C314.273 109.594 300.328 110.18 280.758 110.062H272.32V41.0391H321.422Z" fill="black"/>
<path d="M35.0156 68.3281V80.2344H6.32812V68.3281H35.0156ZM9.98438 71.1875V77.375H31.4062V71.1875H9.98438ZM37.4531 42.6406V45.5H3.65625V42.6406H18.8438V38.5156H22.5V42.6406H37.4531ZM20.6719 47.1875C29.2969 47.2344 34.1719 49.2031 34.1719 53.0938C34.1719 56.75 29.9766 58.6953 22.5 58.9531V62.1875H39.6562V65.1406H1.6875V62.1875H18.8438V58.9531C11.3438 58.6953 7.125 56.75 7.125 53.0938C7.125 49.2031 12.0469 47.2344 20.6719 47.1875ZM20.6719 49.7656C14.5312 49.8125 11.0156 50.9375 11.0625 53.0938C11.0156 55.2031 14.5312 56.4219 20.6719 56.4219C26.7656 56.4219 30.2812 55.2031 30.2812 53.0938C30.2812 50.9375 26.7656 49.8125 20.6719 49.7656ZM79.0312 39.125V80.7969H75.4688V39.125H79.0312ZM70.875 40.1562V78.5938H67.3594V58.2969H61.5469V54.9688H67.3594V40.1562H70.875ZM62.7656 44.4688V47.5156H59.25V66.7812C60.8203 66.6875 62.3203 66.5469 63.7031 66.3594L63.9375 69.0781C57.375 70.2969 48.6094 70.4844 43.1719 70.4844L42.7031 67.3438L47.1094 67.2969V47.5156H43.5938V44.4688H62.7656ZM50.4844 67.25C52.2188 67.2031 54.0469 67.1328 55.8281 67.0156V47.5156H50.4844V67.25ZM119.016 39.125V80.8906H115.312V39.125H119.016ZM96.8438 42.3594C103.031 42.4062 107.484 48.0312 107.484 56.8906C107.484 65.75 103.031 71.375 96.8438 71.375C90.6094 71.375 86.2031 65.75 86.2031 56.8906C86.2031 48.0312 90.6094 42.4062 96.8438 42.3594ZM96.8438 45.6406C92.6719 45.6875 89.7656 50.0938 89.7656 56.8906C89.7656 63.6875 92.6719 68.0938 96.8438 68.0938C101.016 68.0938 103.922 63.6875 103.922 56.8906C103.922 50.0938 101.016 45.6875 96.8438 45.6406ZM141.047 51.9219C141.047 59 146.203 66.1719 152.344 68.8438L150.281 71.75C145.406 69.5234 141.188 64.7188 139.266 58.9531C137.297 65.0703 133.102 70.3906 128.344 72.7812L126.141 69.875C132.094 67.0156 137.297 59.1406 137.344 51.9219V46.4844H127.5V43.4375H150.984V46.4844H141.047V51.9219ZM160.5 39.125V80.7969H156.797V39.125H160.5ZM203.25 39.125V80.7969H199.734V39.125H203.25ZM194.812 40.1562V78.6406H191.344V57.1719H184.312V54.1719H191.344V40.1562H194.812ZM179.859 51.0312C179.859 58.25 183.094 65.4219 188.859 68.75L186.609 71.4688C182.508 69.0078 179.602 64.5078 178.172 59.1875C176.648 64.9297 173.625 69.8281 169.453 72.4531L167.109 69.6875C172.922 66.2188 176.297 58.625 176.297 51.0312V47.0938H168.281V44.0469H187.5V47.0938H179.859V51.0312ZM223.219 46.8594C223.219 52.3906 227.297 57.4531 233.484 59.6094L231.609 62.4688C226.852 60.7812 223.219 57.3594 221.438 53.0469C219.656 57.7812 215.836 61.4609 210.938 63.2656L208.969 60.4062C215.203 58.2031 219.562 52.8125 219.609 46.8594V45.0781H210.094V42.0781H232.594V45.0781H223.219V46.8594ZM241.688 39.125V50.1406H247.969V53.2812H241.688V64.25H238.031V39.125H241.688ZM241.688 66.4531V80.7969H238.031V69.4531H214.406V66.4531H241.688Z" fill="black"/>
<path d="M467.023 73.4531V79.6641H372.453V73.4531H467.023ZM454.719 22.4766V45.7969H392.141V57.5156H456.945V63.4922H384.875V40.1719H447.336V28.5703H384.523V22.4766H454.719ZM454.602 90.2109V121.617H385.578V90.2109H454.602ZM392.844 96.3047V115.523H447.336V96.3047H392.844Z" fill="black"/>
<path d="M11.4219 96.5312C11.2969 95.4219 10.2812 94.7812 8.92188 94.7812C7.42188 94.7812 6.4375 95.5625 6.4375 96.6406C6.4375 97.8281 7.76562 98.2656 8.625 98.4844L9.75 98.7969C10.9688 99.1094 12.9531 99.8125 12.9531 101.922C12.9531 103.766 11.4688 105.203 8.84375 105.203C6.40625 105.203 4.89062 103.938 4.76562 102.062H6.20312C6.32812 103.328 7.5 103.922 8.84375 103.922C10.4062 103.922 11.5781 103.125 11.5781 101.891C11.5781 100.797 10.5312 100.375 9.34375 100.031L7.95312 99.6562C6.17188 99.1406 5.07812 98.2344 5.07812 96.7031C5.07812 94.7969 6.78125 93.5312 8.96875 93.5312C11.1562 93.5312 12.7344 94.8125 12.7969 96.5312H11.4219ZM16.055 93.6875V105H14.6488V93.6875H16.055ZM27.2194 93.6875V105H25.8756L19.7506 96.1875H19.6412V105H18.235V93.6875H19.5944L25.7194 102.516H25.8287V93.6875H27.2194ZM37.1181 97.25C36.79 95.6875 35.4463 94.8438 33.9619 94.8438C31.915 94.8438 30.3213 96.4219 30.3213 99.3438C30.3213 102.266 31.915 103.844 33.9619 103.844C35.4463 103.844 36.7744 103 37.1181 101.453H38.5244C38.1181 103.766 36.2588 105.156 33.9619 105.156C31.0556 105.156 28.9619 102.922 28.9619 99.3438C28.9619 95.7656 31.0556 93.5312 33.9619 93.5312C36.2431 93.5312 38.1025 94.9062 38.5244 97.25H37.1181ZM40.1731 105V93.6875H47.0325V94.9375H41.5794V98.7188H46.6731V99.9531H41.5794V103.75H47.1106V105H40.1731ZM56.4394 93.6875V105H55.0175V95.1562H54.955L52.205 96.9844V95.5625L55.0175 93.6875H56.4394ZM62.9006 93.5312C64.8537 93.5469 67.01 94.7188 67.01 98.8906C67.01 102.906 65.3694 105.156 62.7131 105.156C60.7287 105.156 59.3225 103.938 59.0412 102.141H60.4319C60.6819 103.156 61.4475 103.906 62.7131 103.906C64.5569 103.906 65.6819 102.312 65.6975 99.5625H65.5412C64.885 100.5 63.8537 101.062 62.6506 101.062C60.6194 101.062 58.9475 99.5156 58.9475 97.3281C58.9475 95.2188 60.4944 93.5156 62.9006 93.5312ZM62.9006 94.7656C61.4162 94.7656 60.3069 95.9219 60.3225 97.3125C60.3225 98.7188 61.3694 99.8281 62.8537 99.8281C64.3225 99.8281 65.4787 98.6094 65.4787 97.2812C65.4787 95.9844 64.4006 94.7656 62.9006 94.7656ZM72.3931 93.5312C74.3462 93.5469 76.5025 94.7188 76.5025 98.8906C76.5025 102.906 74.8619 105.156 72.2056 105.156C70.2212 105.156 68.815 103.938 68.5337 102.141H69.9244C70.1744 103.156 70.94 103.906 72.2056 103.906C74.0494 103.906 75.1744 102.312 75.19 99.5625H75.0337C74.3775 100.5 73.3462 101.062 72.1431 101.062C70.1119 101.062 68.44 99.5156 68.44 97.3281C68.44 95.2188 69.9869 93.5156 72.3931 93.5312ZM72.3931 94.7656C70.9087 94.7656 69.7994 95.9219 69.815 97.3125C69.815 98.7188 70.8619 99.8281 72.3462 99.8281C73.815 99.8281 74.9712 98.6094 74.9712 97.2812C74.9712 95.9844 73.8931 94.7656 72.3931 94.7656ZM81.8856 93.5312C83.8388 93.5469 85.995 94.7188 85.995 98.8906C85.995 102.906 84.3544 105.156 81.6981 105.156C79.7138 105.156 78.3075 103.938 78.0263 102.141H79.4169C79.6669 103.156 80.4325 103.906 81.6981 103.906C83.5419 103.906 84.6669 102.312 84.6825 99.5625H84.5263C83.87 100.5 82.8388 101.062 81.6356 101.062C79.6044 101.062 77.9325 99.5156 77.9325 97.3281C77.9325 95.2188 79.4794 93.5156 81.8856 93.5312ZM81.8856 94.7656C80.4013 94.7656 79.2919 95.9219 79.3075 97.3125C79.3075 98.7188 80.3544 99.8281 81.8388 99.8281C83.3075 99.8281 84.4638 98.6094 84.4638 97.2812C84.4638 95.9844 83.3856 94.7656 81.8856 94.7656ZM89.5031 93.7031L88.2844 97.9531H87.1281L87.9875 93.7031H89.5031ZM102.426 97.25C102.098 95.6875 100.754 94.8438 99.2694 94.8438C97.2225 94.8438 95.6288 96.4219 95.6288 99.3438C95.6288 102.266 97.2225 103.844 99.2694 103.844C100.754 103.844 102.082 103 102.426 101.453H103.832C103.426 103.766 101.566 105.156 99.2694 105.156C96.3631 105.156 94.2694 102.922 94.2694 99.3438C94.2694 95.7656 96.3631 93.5312 99.2694 93.5312C101.551 93.5312 103.41 94.9062 103.832 97.25H102.426ZM105.481 105V93.6875H109.324C111.981 93.6875 113.184 95.1562 113.184 97.1719C113.184 98.6641 112.512 99.8438 111.074 100.344L113.621 105H111.981L109.621 100.594L109.34 100.609H106.887V105H105.481ZM106.887 99.3281H109.277C111.074 99.3281 111.793 98.5156 111.793 97.1719C111.793 95.8125 111.074 94.9375 109.262 94.9375H106.887V99.3281ZM114.895 105V93.6875H121.754V94.9375H116.301V98.7188H121.395V99.9531H116.301V103.75H121.832V105H114.895ZM124.153 105H122.684L126.825 93.6875H128.309L132.45 105H130.966L129.841 101.812H125.294L124.153 105ZM125.716 100.578H129.403L127.606 95.5156H127.512L125.716 100.578ZM131.708 94.9375V93.6875H140.239V94.9375H136.692V105H135.271V94.9375H131.708ZM141.794 105V93.6875H148.654V94.9375H143.201V98.7188H148.294V99.9531H143.201V103.75H148.732V105H141.794ZM156.342 105L153.248 93.6875H154.67L157.029 102.844H157.139L159.529 93.6875H161.107L163.514 102.844H163.607L165.967 93.6875H167.389L164.295 105H162.842L160.373 96.0469H160.279L157.795 105H156.342ZM168.569 105V93.6875H175.428V94.9375H169.975V98.7188H175.069V99.9531H169.975V103.75H175.506V105H168.569ZM177.327 105V93.6875H181.296C183.671 93.6875 184.78 95.0156 184.78 96.6875C184.78 98.1406 183.921 98.7969 182.936 99.0625V99.1719C183.983 99.2344 185.233 100.203 185.233 102C185.233 103.703 184.108 105 181.436 105H177.327ZM181.421 103.75C183.186 103.75 183.874 102.969 183.874 101.984C183.874 100.828 182.952 99.8594 181.499 99.8594H178.733V103.75H181.421ZM181.249 98.6406C182.467 98.6406 183.436 97.8906 183.436 96.7031C183.436 95.7188 182.78 94.9375 181.296 94.9375H178.733V98.6406H181.249ZM194.124 105H190.609V93.6875H194.265C197.562 93.6875 199.515 95.8125 199.515 99.3281C199.515 102.859 197.562 105 194.124 105ZM192.015 103.75H194.031C196.812 103.75 198.14 102.078 198.14 99.3281C198.14 96.5938 196.812 94.9375 194.171 94.9375H192.015V103.75ZM201.258 105V93.6875H208.117V94.9375H202.664V98.7188H207.758V99.9531H202.664V103.75H208.195V105H201.258ZM216.188 96.5312C216.062 95.4219 215.047 94.7812 213.688 94.7812C212.188 94.7812 211.203 95.5625 211.203 96.6406C211.203 97.8281 212.531 98.2656 213.391 98.4844L214.516 98.7969C215.734 99.1094 217.719 99.8125 217.719 101.922C217.719 103.766 216.234 105.203 213.609 105.203C211.172 105.203 209.656 103.938 209.531 102.062H210.969C211.094 103.328 212.266 103.922 213.609 103.922C215.172 103.922 216.344 103.125 216.344 101.891C216.344 100.797 215.297 100.375 214.109 100.031L212.719 99.6562C210.938 99.1406 209.844 98.2344 209.844 96.7031C209.844 94.7969 211.547 93.5312 213.734 93.5312C215.922 93.5312 217.5 94.8125 217.562 96.5312H216.188ZM220.821 93.6875V105H219.414V93.6875H220.821ZM230.719 97.2188C230.235 95.7656 229.126 94.8438 227.516 94.8438C225.516 94.8438 223.923 96.4219 223.923 99.3438C223.923 102.266 225.516 103.844 227.61 103.844C229.524 103.844 230.829 102.562 230.86 100.562H227.907V99.3281H232.235V100.547C232.235 103.359 230.298 105.156 227.61 105.156C224.594 105.156 222.563 102.922 222.563 99.3438C222.563 95.7656 224.61 93.5312 227.516 93.5312C229.907 93.5312 231.751 95.0312 232.173 97.2188H230.719ZM243.009 93.6875V105H241.665L235.54 96.1875H235.431V105H234.024V93.6875H235.384L241.509 102.516H241.618V93.6875H243.009Z" fill="black"/>
</svg>
